<?xml version="1.0" standalone="no"?>
<!DOCTYPE svg PUBLIC "-//W3C//DTD SVG 20010904//EN"
 "http://www.w3.org/TR/2001/REC-SVG-20010904/DTD/svg10.dtd">
<svg version="1.0" xmlns="http://www.w3.org/2000/svg"
 width="442.000000pt" height="442.000000pt" viewBox="0 0 442.000000 442.000000"
 preserveAspectRatio="xMidYMid meet">
<metadata>
Created by potrace 1.14, written by Peter Selinger 2001-2017
</metadata>
<g transform="translate(0.000000,442.000000) scale(0.100000,-0.100000)"
fill="#000000" stroke="none">
<path d="M2100 3833 c-140 -41 -258 -157 -286 -283 -4 -19 -9 -38 -10 -42 -1
-5 -2 -17 -3 -27 0 -11 -11 -21 -26 -25 -14 -4 -25 -10 -25 -15 0 -4 -18 -16
-40 -26 -22 -10 -40 -22 -40 -27 0 -4 -5 -8 -12 -8 -6 0 -19 -6 -27 -14 -9 -8
-32 -23 -51 -34 -19 -11 -183 -113 -365 -227 -181 -114 -335 -210 -342 -212
-7 -3 -16 12 -23 36 -17 63 -88 159 -150 202 -71 50 -138 72 -227 75 -144 6
-268 -56 -350 -174 -88 -127 -95 -287 -18 -419 113 -191 371 -258 564 -145 58
34 122 100 152 157 13 25 27 45 30 45 3 0 11 -10 17 -22 10 -21 40 -75 102
-183 12 -22 54 -95 92 -162 l69 -122 -39 -73 c-41 -76 -135 -255 -194 -368
-52 -100 -47 -98 -79 -41 -166 290 -585 275 -731 -27 -29 -60 -32 -76 -32
-157 0 -105 22 -174 80 -248 41 -52 121 -110 186 -133 68 -24 187 -27 256 -5
123 38 230 138 267 252 9 27 20 49 24 49 4 0 158 -72 342 -161 184 -89 389
-187 456 -219 106 -51 123 -62 129 -87 36 -164 119 -260 279 -324 46 -18 175
-20 231 -3 148 43 251 146 288 287 8 32 17 61 20 65 5 9 38 25 206 105 63 30
201 96 305 147 286 139 393 190 398 190 2 0 14 -26 26 -58 89 -246 411 -339
625 -181 135 99 195 271 148 426 -52 169 -198 282 -374 289 -159 6 -299 -71
-376 -206 l-27 -48 -137 267 -136 266 45 80 c25 44 60 107 78 140 18 33 51 92
73 130 22 39 48 85 58 103 l17 33 29 -51 c34 -60 105 -131 159 -159 99 -52
247 -62 347 -23 105 41 213 152 242 250 32 107 19 226 -36 319 -149 255 -524
269 -691 24 -23 -33 -47 -79 -53 -101 -6 -22 -13 -40 -17 -40 -5 0 -215 134
-814 522 -84 55 -86 57 -97 109 -36 160 -156 283 -309 317 -59 13 -150 11
-203 -5z m-456 -670 c-42 -82 -96 -184 -119 -228 -23 -44 -70 -134 -105 -200
-34 -66 -69 -132 -78 -146 l-15 -27 -156 95 c-86 52 -178 109 -204 125 l-48
31 91 56 c49 31 158 99 240 151 83 52 160 100 173 107 12 7 29 17 37 23 8 6
58 37 110 70 52 33 100 63 105 68 9 7 29 17 43 21 1 1 -32 -65 -74 -146z m276
6 c142 -136 380 -154 530 -41 52 39 100 92 122 136 11 21 23 34 27 30 5 -5 75
-139 156 -299 81 -159 170 -334 198 -388 27 -53 48 -98 46 -100 -2 -1 -24 -16
-49 -33 -25 -17 -52 -34 -60 -37 -8 -4 -57 -34 -109 -67 -51 -33 -95 -60 -98
-60 -3 0 -16 -9 -30 -20 -14 -11 -29 -20 -34 -20 -4 0 -15 22 -24 49 -20 60
-81 147 -126 181 -116 85 -271 111 -397 66 -111 -40 -212 -141 -247 -247 -17
-49 -17 -50 -41 -35 -32 22 -205 127 -229 140 -52 29 -145 89 -145 95 1 3 29
60 65 126 35 66 83 158 107 205 23 47 46 87 50 88 5 2 8 11 8 21 0 9 4 21 9
26 9 10 35 56 126 232 l48 93 34 -57 c18 -31 47 -69 63 -84z m898 66 c9 -6 60
-38 112 -72 110 -72 235 -153 420 -272 72 -46 129 -85 128 -86 -17 -15 -262
-165 -269 -165 -5 0 -9 -4 -9 -10 0 -5 -5 -10 -11 -10 -6 0 -31 -14 -56 -31
-24 -17 -48 -27 -53 -23 -4 5 -44 79 -88 164 -242 470 -292 569 -292 574 0 3
23 -9 51 -27 28 -17 58 -37 67 -42z m-1694 -654 c86 -52 156 -99 156 -103 0
-15 -92 -188 -100 -188 -7 0 -68 105 -190 325 -12 22 -27 46 -34 54 -18 22 -2
14 168 -88z m2296 52 c-13 -21 -34 -58 -48 -83 -14 -25 -44 -79 -67 -120 -23
-41 -51 -92 -62 -112 l-20 -38 -47 91 c-26 50 -45 96 -43 103 3 6 63 47 133
91 71 43 132 84 136 90 4 5 8 6 8 1 0 -6 5 -5 12 2 21 21 20 13 -2 -25z
m-1874 -309 c88 -53 172 -104 187 -114 l28 -17 -51 -33 c-29 -18 -58 -40 -66
-47 -8 -8 -14 -11 -14 -6 0 4 -4 3 -8 -2 -4 -6 -27 -23 -51 -39 -25 -16 -50
-33 -55 -37 -6 -5 -39 -28 -74 -50 -51 -34 -65 -39 -77 -29 -8 7 -15 16 -15
20 0 5 -20 43 -45 84 -56 95 -77 144 -64 151 5 4 17 23 27 43 62 129 94 183
106 179 8 -3 85 -49 172 -103z m1565 -23 l59 -115 -38 -65 c-20 -36 -46 -82
-56 -103 -47 -88 -41 -87 -141 -16 -50 35 -129 90 -178 122 -48 32 -87 62 -87
65 0 6 100 70 124 80 6 2 15 8 21 13 19 16 136 88 143 88 4 1 21 12 37 25 17
14 36 24 43 23 7 -2 40 -54 73 -117z m-1292 -229 c6 -20 25 -60 42 -87 122
-194 376 -250 574 -127 74 47 158 157 168 221 5 35 13 34 79 -12 189 -131 246
-171 270 -185 34 -20 34 -27 6 -72 -36 -58 -88 -154 -95 -172 -3 -10 -9 -18
-14 -18 -5 0 -9 -5 -9 -10 0 -6 -20 -47 -45 -90 -25 -44 -57 -102 -72 -128
-14 -26 -50 -89 -79 -140 l-52 -93 -31 54 c-102 179 -307 259 -494 193 -100
-36 -176 -101 -229 -198 -27 -48 -27 -49 -41 -26 -22 35 -377 668 -377 672 0
2 37 28 83 57 45 30 84 56 87 60 3 3 16 12 29 19 14 7 30 17 35 22 19 17 141
97 148 97 4 1 12 -16 17 -37z m-578 -88 c27 -48 49 -92 49 -98 0 -6 -19 -23
-42 -38 -24 -15 -51 -33 -62 -40 -167 -113 -220 -147 -224 -143 -3 2 0 10 5
17 6 7 48 85 93 173 122 234 119 229 127 221 3 -3 27 -44 54 -92z m2091 -115
c88 -171 103 -208 83 -195 -14 9 -37 24 -52 33 -16 10 -32 21 -38 26 -5 4 -56
39 -112 78 -57 39 -103 74 -103 79 0 5 14 32 30 60 17 28 30 53 30 55 0 9 43
75 48 75 4 0 55 -95 114 -211z m-1940 -152 c25 -45 57 -102 71 -127 14 -25 77
-137 140 -250 64 -112 114 -206 112 -208 -3 -4 -54 20 -388 182 -116 56 -258
124 -314 151 l-102 48 182 123 c100 67 187 126 192 131 12 11 48 32 55 33 3 0
26 -37 52 -83z m1761 25 c45 -32 127 -88 182 -125 55 -37 111 -76 124 -86 l24
-19 -109 -52 c-131 -63 -313 -150 -528 -254 -87 -42 -160 -75 -162 -74 -5 5
371 668 379 668 5 0 45 -26 90 -58z"/>
<path d="M2240 570 c-11 -7 -7 -10 18 -10 20 0 31 4 27 10 -8 13 -26 13 -45 0z"/>
</g>
</svg>
